<svg width="247" height="153" viewBox="0 0 247 153" fill="none" xmlns="http://www.w3.org/2000/svg">
<mask id="mask0_669_540" style="mask-type:alpha" maskUnits="userSpaceOnUse" x="29" y="106" width="148" height="27">
<path d="M86 126C59.7349 121.068 48.5 125 29 106C31.5 115.5 46.0458 131.688 67 132.5C96.5613 133.645 151.5 131.279 177 132.5C161.291 130.13 147.442 129.556 134.5 129.5C118.196 129.429 101.331 128.879 86 126Z" fill="#D9D9D9"/>
</mask>
<g mask="url(#mask0_669_540)">
<g filter="url(#filter0_f_669_540)">
<path d="M66.82 132.903C64.3868 135.801 67.077 145.002 41.1601 135.343C15.2431 125.683 -0.768743 103.73 3.42729 92.4716C7.62332 81.2135 52.7619 103.254 84.9888 116.197C81.1123 118.75 71.2421 127.637 66.82 132.903Z" fill="#00FF57"/>
</g>
<g filter="url(#filter1_f_669_540)">
<path d="M179.661 149.05C172.571 157.082 126.09 141.713 118.412 134.935C110.735 128.158 127.37 124.789 134.46 116.757C141.551 108.725 174.182 114.911 181.859 121.689C189.536 128.467 186.752 141.019 179.661 149.05Z" fill="#00DDA8"/>
</g>
<g filter="url(#filter2_f_669_540)">
<path d="M155.631 127.204C155.472 129.702 120.441 143.198 84.9563 137.084C69.3713 136.094 61.2804 115.956 61.4391 113.458C61.5978 110.96 87.5056 121.173 103.091 122.164C118.676 123.154 155.79 124.706 155.631 127.204Z" fill="#006434"/>
</g>
</g>
<mask id="mask1_669_540" style="mask-type:alpha" maskUnits="userSpaceOnUse" x="29" y="105" width="79" height="24">
<path d="M108 128.5C64.1816 118.23 31.0921 101.721 29 106C34.5 111.5 43.0574 121.544 61.5 123C80.5 124.5 102.58 129.641 108 128.5Z" fill="#D9D9D9"/>
</mask>
<g mask="url(#mask1_669_540)">
<g filter="url(#filter3_f_669_540)">
<path d="M85.2596 116.326C83.1448 123.093 52.9668 128.651 39.4517 124.427C25.9366 120.203 18.9908 107.528 21.1055 100.761C23.2203 93.9936 39.3936 90.2735 52.9087 94.4971C66.4239 98.7206 87.3744 109.559 85.2596 116.326Z" fill="#52FFAC"/>
</g>
<g filter="url(#filter4_f_669_540)">
<path d="M116.787 125.766C116.478 132.115 104.839 136.707 90.7903 136.024C76.7415 135.34 49.2053 129.771 49.5142 123.422C49.823 117.074 81.0727 118.639 91.9088 113.033C105.958 113.717 117.096 119.417 116.787 125.766Z" fill="#2DFF81"/>
</g>
</g>
<path d="M53.5001 133.28C43.4133 129.801 34.4866 122.809 28.7328 112.844C16.0579 90.89 23.5797 62.818 45.5334 50.1431C67.487 37.4681 95.559 44.99 108.234 66.9436C120.299 87.8414 114.064 114.283 94.5002 127.711" stroke="#002915" stroke-width="2"/>
<rect x="136.837" y="31.9542" width="31.8" height="50.4" transform="rotate(60 136.837 31.9542)" fill="white"/>
<circle cx="45.0144" cy="97.0145" r="5.13497" transform="rotate(60 45.0144 97.0145)" fill="#00A110"/>
<circle cx="142.015" cy="37.0145" r="5.13497" transform="rotate(60 142.015 37.0145)" fill="#00A110"/>
<circle cx="72.0144" cy="111.014" r="5.13497" transform="rotate(60 72.0144 111.014)" fill="#2DFF81"/>
<circle cx="155.015" cy="116.014" r="5.13497" transform="rotate(60 155.015 116.014)" fill="#72FFA2"/>
<circle cx="164.015" cy="34.0145" r="5.13497" transform="rotate(60 164.015 34.0145)" fill="#72FFA2"/>
<circle cx="146.015" cy="62.0145" r="5.13497" transform="rotate(60 146.015 62.0145)" fill="#72FFA2"/>
<circle cx="183.472" cy="98.4717" r="5.13497" transform="rotate(18.022 183.472 98.4717)" fill="#2DFF81"/>
<circle cx="168.472" cy="57.4717" r="5.13497" transform="rotate(18.022 168.472 57.4717)" fill="#2DFF81"/>
<circle cx="180.897" cy="124.897" r="2.85276" transform="rotate(60 180.897 124.897)" fill="#00A110"/>
<circle cx="101.897" cy="92.897" r="2.85276" transform="rotate(60 101.897 92.897)" fill="#72FFA2"/>
<circle cx="159.897" cy="76.8969" r="2.85276" transform="rotate(60 159.897 76.8969)" fill="#00A210"/>
<circle cx="150.897" cy="96.8969" r="2.85276" transform="rotate(60 150.897 96.8969)" fill="#02FFC2"/>
<circle cx="145.897" cy="19.8969" r="2.85276" transform="rotate(60 145.897 19.8969)" fill="#02FFC2"/>
<circle cx="124.897" cy="57.8969" r="2.85276" transform="rotate(60 124.897 57.8969)" fill="#02FFC2"/>
<circle cx="167.897" cy="11.8969" r="2.85276" transform="rotate(60 167.897 11.8969)" fill="#02FFC2"/>
<circle cx="79.8969" cy="90.8969" r="2.85276" transform="rotate(60 79.8969 90.8969)" fill="#00A110"/>
<circle cx="109.897" cy="54.8969" r="2.85276" transform="rotate(60 109.897 54.8969)" fill="#00A110"/>
<circle cx="181.897" cy="41.8969" r="2.85276" transform="rotate(60 181.897 41.8969)" fill="#00A110"/>
<circle cx="132.897" cy="11.8969" r="2.85276" transform="rotate(60 132.897 11.8969)" fill="#00A110"/>
<circle cx="104.948" cy="69.9485" r="1.42638" transform="rotate(60 104.948 69.9485)" fill="#00A110"/>
<circle cx="62.9484" cy="77.9485" r="1.42638" transform="rotate(60 62.9484 77.9485)" fill="#00DDA8"/>
<circle cx="115.948" cy="73.9485" r="1.42638" transform="rotate(60 115.948 73.9485)" fill="#00DDA8"/>
<circle cx="95.717" cy="106.996" r="1.42638" transform="rotate(60 95.717 106.996)" fill="#00B45D"/>
<circle cx="180.948" cy="71.9485" r="1.42638" transform="rotate(60 180.948 71.9485)" fill="#02FFC2"/>
<circle cx="136.931" cy="81.1362" r="1.42638" transform="rotate(60 136.931 81.1362)" fill="#72FFA2"/>
<circle cx="164.948" cy="101.948" r="1.42638" transform="rotate(60 164.948 101.948)" fill="#00A110"/>
<circle cx="82.8969" cy="75.8969" r="2.85276" transform="rotate(60 82.8969 75.8969)" fill="#52FFAC"/>
<circle cx="172.897" cy="84.8969" r="2.85276" transform="rotate(60 172.897 84.8969)" fill="#52FFAC"/>
<circle cx="148.897" cy="3.89694" r="2.85276" transform="rotate(60 148.897 3.89694)" fill="#52FFAC"/>
<path d="M122.727 38.715L96.2269 54.015M139.827 68.333L113.327 83.633" stroke="#002915" stroke-width="2"/>
<line y1="133" x2="247" y2="133" stroke="#002915" stroke-width="2"/>
<path d="M58 132L70 122.5H86L91 113L88.5 95L103.5 87.5" stroke="#002915" stroke-width="2"/>
<path d="M86 122.5L94.5 128L97 126L98.5 110.5L101.5 108" stroke="#002915" stroke-width="2"/>
<path d="M70 122.5L61 111L51 117L46.5 114" stroke="#002915" stroke-width="2"/>
<path d="M80 131.5L95.5 127" stroke="#002915"/>
<path d="M77 122L68 111L77 102.5L82 111L84 96L72 94L75 87" stroke="#002915"/>
<path d="M61.5 110.5V103M61.5 103L56.5 100.5M61.5 103L59.5 96.5M61.5 103H68.5L70.5 98.5" stroke="#002915"/>
<path d="M47 115L37.25 109M37.25 109L32 107.5L24.5 101M37.25 109L43.5 101L40.5 90M37.25 109L49 106L47 97.5L52 92.5" stroke="#002915"/>
<defs>
<filter id="filter0_f_669_540" x="-37.2382" y="49.3694" width="162.227" height="130.279" filterUnits="userSpaceOnUse" color-interpolation-filters="sRGB">
<feFlood flood-opacity="0" result="BackgroundImageFix"/>
<feBlend mode="normal" in="SourceGraphic" in2="BackgroundImageFix" result="shape"/>
<feGaussianBlur stdDeviation="20" result="effect1_foregroundBlur_669_540"/>
</filter>
<filter id="filter1_f_669_540" x="76.4321" y="72.9595" width="150.02" height="118.358" filterUnits="userSpaceOnUse" color-interpolation-filters="sRGB">
<feFlood flood-opacity="0" result="BackgroundImageFix"/>
<feBlend mode="normal" in="SourceGraphic" in2="BackgroundImageFix" result="shape"/>
<feGaussianBlur stdDeviation="20" result="effect1_foregroundBlur_669_540"/>
</filter>
<filter id="filter2_f_669_540" x="31.4368" y="83.0659" width="154.195" height="85.5921" filterUnits="userSpaceOnUse" color-interpolation-filters="sRGB">
<feFlood flood-opacity="0" result="BackgroundImageFix"/>
<feBlend mode="normal" in="SourceGraphic" in2="BackgroundImageFix" result="shape"/>
<feGaussianBlur stdDeviation="15" result="effect1_foregroundBlur_669_540"/>
</filter>
<filter id="filter3_f_669_540" x="10.7313" y="82.7073" width="84.6768" height="53.189" filterUnits="userSpaceOnUse" color-interpolation-filters="sRGB">
<feFlood flood-opacity="0" result="BackgroundImageFix"/>
<feBlend mode="normal" in="SourceGraphic" in2="BackgroundImageFix" result="shape"/>
<feGaussianBlur stdDeviation="5" result="effect1_foregroundBlur_669_540"/>
</filter>
<filter id="filter4_f_669_540" x="29.5116" y="93.0331" width="107.282" height="63.0581" filterUnits="userSpaceOnUse" color-interpolation-filters="sRGB">
<feFlood flood-opacity="0" result="BackgroundImageFix"/>
<feBlend mode="normal" in="SourceGraphic" in2="BackgroundImageFix" result="shape"/>
<feGaussianBlur stdDeviation="10" result="effect1_foregroundBlur_669_540"/>
</filter>
</defs>
</svg>
